<?xml version="1.0" standalone="no"?>
<!DOCTYPE svg PUBLIC "-//W3C//DTD SVG 20010904//EN"
 "http://www.w3.org/TR/2001/REC-SVG-20010904/DTD/svg10.dtd">
<svg version="1.0" xmlns="http://www.w3.org/2000/svg"
 width="736.000000pt" height="736.000000pt" viewBox="0 0 736.000000 736.000000"
 preserveAspectRatio="xMidYMid meet">
<metadata>
Created by potrace 1.14, written by Peter Selinger 2001-2017
</metadata>
<g transform="translate(0.000000,736.000000) scale(0.100000,-0.100000)"
fill="#000000" stroke="none">
<path d="M3623 4712 c-139 -76 -232 -200 -174 -232 31 -16 39 -13 94 43 29 28
75 66 102 84 84 54 95 63 95 81 0 43 -60 56 -117 24z"/>
<path d="M3234 4676 c-23 -16 -41 -58 -73 -162 -26 -86 -26 -96 -2 -118 42
-38 76 -2 109 119 11 39 26 84 33 102 11 28 11 34 -6 52 -21 25 -33 26 -61 7z"/>
<path d="M3880 4649 c-100 -47 -134 -91 -98 -127 19 -19 40 -15 109 21 35 17
75 37 88 42 13 6 30 19 37 30 12 18 11 24 -2 43 -21 30 -56 28 -134 -9z"/>
<path d="M4220 4625 c-95 -51 -131 -100 -98 -133 16 -16 63 -15 76 1 6 7 41
28 78 47 77 40 97 69 69 100 -25 28 -50 25 -125 -15z"/>
<path d="M2908 4498 c-24 -37 -30 -65 -30 -145 1 -51 6 -82 17 -99 17 -26 56
-32 72 -11 16 19 24 252 10 266 -18 18 -54 13 -69 -11z"/>
<path d="M4521 4457 c-71 -25 -87 -41 -77 -80 8 -34 40 -35 136 -6 83 25 108
48 92 84 -15 32 -61 33 -151 2z"/>
<path d="M3630 4368 c-60 -36 -83 -75 -60 -102 18 -23 54 -20 95 8 20 14 49
28 66 31 37 8 56 43 40 74 -18 33 -75 28 -141 -11z"/>
<path d="M4009 4311 c-82 -28 -102 -65 -54 -97 22 -14 29 -14 77 -1 29 8 70
18 90 21 49 9 66 37 43 72 -13 20 -23 24 -63 23 -26 -1 -68 -9 -93 -18z"/>
<path d="M4681 4261 c-24 -24 -27 -53 -8 -69 6 -5 44 -12 82 -16 39 -3 95 -9
127 -12 50 -6 57 -4 67 15 28 51 -36 89 -165 98 -74 5 -83 4 -103 -16z"/>
<path d="M3059 4181 c-53 -52 -62 -86 -31 -114 30 -27 46 -20 100 44 53 62 62
85 40 107 -25 25 -60 13 -109 -37z"/>
<path d="M3295 4151 c-48 -22 -95 -67 -95 -92 0 -20 25 -49 43 -49 7 0 29 11
48 24 20 14 48 28 62 31 30 8 67 40 67 59 0 20 -34 46 -61 46 -13 0 -42 -9
-64 -19z"/>
<path d="M2738 4060 c-29 -33 -74 -97 -100 -142 -62 -110 -73 -124 -120 -159
-32 -23 -52 -29 -90 -29 -43 0 -54 4 -78 30 -28 30 -66 38 -105 24 -21 -9 -45
-56 -45 -92 0 -39 18 -60 64 -76 35 -12 40 -19 62 -82 55 -156 171 -292 349
-408 109 -71 175 -132 226 -210 38 -58 39 -61 39 -150 1 -96 4 -105 54 -144
50 -38 132 -26 180 27 26 29 39 26 54 -9 17 -38 62 -62 117 -62 82 0 146 53
195 160 23 50 33 62 47 58 66 -21 143 -29 328 -35 l210 -6 -3 -70 c-3 -66 -1
-73 24 -98 37 -37 103 -37 168 -1 59 33 93 78 109 143 8 37 16 51 29 51 27 0
35 -64 14 -108 -23 -48 -7 -88 47 -112 48 -22 100 -12 161 29 48 33 100 129
119 216 10 51 10 57 -10 76 -13 14 -28 19 -40 15 -20 -6 -53 -64 -53 -92 0
-21 -38 -94 -63 -121 -35 -39 -53 -30 -49 24 5 64 -31 160 -64 175 -18 9 -49
8 -117 -1 -51 -7 -218 -13 -377 -14 -245 -2 -297 1 -369 17 -134 29 -159 16
-202 -107 -20 -56 -65 -99 -102 -95 -29 3 -31 7 -48 76 -20 85 -33 104 -68
100 -18 -2 -38 -20 -69 -66 -48 -68 -81 -96 -104 -87 -11 5 -17 28 -20 94 -4
58 -12 103 -27 135 -31 70 -158 196 -276 274 -140 92 -235 190 -285 294 -22
45 -40 90 -40 99 0 18 19 29 53 29 69 1 180 90 233 188 44 81 88 147 124 187
15 17 33 40 39 53 17 32 -2 62 -39 62 -23 0 -40 -13 -82 -60z m1580 -1304 c19
-12 -12 -60 -50 -79 l-33 -16 -3 46 c-2 30 1 49 10 54 15 9 58 7 76 -5z"/>
<path d="M3907 4100 c-64 -25 -79 -38 -75 -68 5 -44 28 -48 119 -21 90 27 111
48 83 88 -19 26 -62 27 -127 1z"/>
<path d="M4350 4082 c-55 -15 -66 -21 -74 -45 -8 -21 -6 -31 7 -44 15 -15 25
-15 118 -3 102 14 129 26 129 59 0 51 -64 62 -180 33z"/>
<path d="M3462 4009 c-69 -47 -112 -106 -112 -156 0 -63 63 -72 92 -13 10 19
36 52 59 73 34 31 49 37 85 37 34 0 47 -5 63 -26 25 -32 27 -83 6 -124 -18
-35 -36 -45 -95 -55 -49 -8 -80 -29 -80 -55 0 -29 23 -40 85 -40 50 0 69 5
106 29 120 76 134 236 29 336 -27 26 -39 30 -103 33 -71 4 -73 3 -135 -39z"/>
<path d="M4902 4034 c-40 -28 -25 -70 29 -84 19 -5 62 -20 97 -35 59 -25 65
-25 88 -10 51 33 26 68 -83 114 -82 35 -100 37 -131 15z"/>
<path d="M4560 3887 c-18 -9 -26 -22 -28 -45 -4 -35 -1 -37 95 -66 83 -26 113
-17 113 30 0 49 -129 106 -180 81z"/>
<path d="M3944 3836 c-73 -54 -93 -89 -68 -117 23 -26 45 -24 86 9 19 15 51
36 72 47 61 33 65 98 6 103 -28 2 -47 -6 -96 -42z"/>
<path d="M4987 3750 c-11 -16 -13 -28 -7 -40 9 -17 140 -90 161 -90 5 0 18 9
29 20 16 16 18 24 8 44 -15 35 -84 78 -134 84 -35 4 -44 1 -57 -18z"/>
<path d="M4162 3708 c-11 -18 -26 -50 -33 -70 -11 -33 -11 -39 6 -58 35 -38
64 -23 104 57 34 68 24 103 -30 103 -20 0 -33 -9 -47 -32z"/>
<path d="M2932 3713 c-17 -7 -42 -57 -42 -86 0 -29 29 -57 59 -57 12 0 33 11
46 25 56 55 7 146 -63 118z"/>
<path d="M4731 3656 c-23 -28 -6 -62 42 -80 66 -25 96 -20 110 16 4 11 -2 28
-16 44 -29 34 -114 46 -136 20z"/>
<path d="M4439 3606 c-80 -28 -127 -85 -102 -125 19 -31 55 -24 121 24 68 49
77 75 37 101 -16 10 -27 10 -56 0z"/>
<path d="M4990 3500 c-11 -11 -20 -27 -20 -37 0 -20 143 -163 164 -163 20 0
46 27 46 48 0 44 -123 172 -165 172 -3 0 -14 -9 -25 -20z"/>
<path d="M4610 3437 c-46 -27 -56 -38 -58 -64 -6 -60 59 -64 132 -8 43 33 50
52 31 81 -21 32 -40 30 -105 -9z"/>
<path d="M4629 3236 c-10 -22 -9 -29 7 -47 39 -44 129 -64 154 -35 33 41 -21
91 -110 103 -35 5 -41 3 -51 -21z"/>
<path d="M4932 3228 c-19 -19 -14 -48 19 -100 35 -54 60 -72 89 -63 44 14 30
85 -28 148 -27 29 -60 35 -80 15z"/>
<path d="M4837 3020 c-18 -25 -6 -67 30 -106 26 -28 45 -30 67 -8 22 22 20 55
-7 95 -28 42 -68 50 -90 19z"/>
</g>
</svg>
